<?xml version="1.0" encoding="UTF-8"?>
<svg width="244px" height="20px" viewBox="0 0 244 20" version="1.1" xmlns="http://www.w3.org/2000/svg" xmlns:xlink="http://www.w3.org/1999/xlink">
    <title>FCF517E5-2937-4D3E-8E9F-047E2CDA08FD@2x</title>
    <g id="Site" stroke="none" stroke-width="1" fill="none" fill-rule="evenodd">
        <g id="0.0-Home-" transform="translate(-152.000000, -30.000000)" fill="#004149" fill-rule="nonzero">
            <g id="Baemingo-logo" transform="translate(152.000000, 30.000000)">
                <path d="M199.288889,0.555555556 C200.598282,0.523588545 201.902126,0.736499378 203.133333,1.18333333 C204.249711,1.63716884 205.279581,2.27989751 206.177778,3.08333333 L206.177778,3.08333333 L204.183333,5.55555556 L203.894525,5.29823119 C203.305861,4.79701114 202.651874,4.37701611 201.95,4.05 C201.067706,3.69669131 200.122239,3.52839804 199.172222,3.55555556 C197.573404,3.53814322 196.053068,4.24722491 195.038889,5.48333333 C193.92508,6.76815099 193.330762,8.42233787 193.372222,10.1222222 L193.372222,10.1222222 L193.372222,10.1722222 L193.366607,10.4796431 C193.373314,12.116341 193.964382,13.7009323 195.038889,14.9444444 C196.15925,16.187954 197.771622,16.8731613 199.444444,16.8166667 C201.005585,16.8524907 202.532243,16.3547099 203.772222,15.4055556 L203.772222,15.4055556 L203.772222,11.9277778 L199.188889,11.9277778 L199.188889,9.08333333 L206.816667,9.08333333 L206.816667,16.8944444 L206.559305,17.1249144 C204.561282,18.8579092 201.997116,19.8075732 199.344444,19.7888889 C196.81708,19.8870413 194.369145,18.8957286 192.622222,17.0666667 C190.893228,15.2174725 189.968195,12.7580443 190.05,10.2277778 L190.05,10.2277778 L190.05,10.1722222 L190.048842,9.84364696 C190.081435,7.43808478 191.01515,5.12728159 192.672222,3.37222222 C194.365361,1.51880688 196.779362,0.491184252 199.288889,0.555555556 Z M234.055556,0.555555556 C236.584497,0.47454466 239.025805,1.4866959 240.755556,3.33333333 C242.508164,5.15016457 243.460493,7.59300804 243.4,10.1166667 L243.4,10.1166667 L243.4,10.1722222 C243.448423,12.703493 242.491497,15.1507466 240.738889,16.9777778 C238.963528,18.7714126 236.546134,19.7829214 234.022444,19.7881559 C231.498755,19.7933499 229.077202,18.7918389 227.294444,17.0055556 C225.553086,15.1845839 224.605927,12.7467503 224.661111,10.2277778 L224.661111,10.2277778 L224.661111,10.1722222 C224.611809,7.64184668 225.566608,5.19492435 227.316667,3.36666667 C229.056659,1.50769443 231.510314,0.484157858 234.055556,0.555555556 Z M41.5833333,0.738888889 L49.4722222,19.4888889 L46.1388889,19.4888889 L44.3222222,15 L35.8444444,15 L34,19.4722222 L30.7777778,19.4722222 L38.6555556,0.738888889 L41.5833333,0.738888889 Z M7.01666667,0.911111077 C8.70559094,0.910916899 10.2867904,1.74061494 11.2462963,3.13051193 C12.2058022,4.52040892 12.4211057,6.293044 11.8222222,7.87222222 L11.8222222,7.87222222 L11.8444444,7.87222222 C14.475992,9.01352791 15.9458053,11.8445444 15.3651881,14.6535487 C14.784571,17.462553 12.312824,19.4788547 9.44444444,19.4833333 L9.44444444,19.4833333 L2.22044605e-14,19.4833333 L2.22044605e-14,0.911111077 Z M79.5222222,0.872222222 L79.5222222,3.79444444 L69.3833333,3.79444444 L69.3833333,8.63333333 L78.3722222,8.63333333 L78.3722222,11.5555556 L69.3833333,11.5555556 L69.3833333,16.55 L79.65,16.55 L79.65,19.4722222 L66.2333333,19.4722222 L66.2333333,0.872222222 L79.5222222,0.872222222 Z M101.277778,0.872222222 L106.733333,9.66666667 L112.183333,0.872222222 L115.538889,0.872222222 L115.538889,19.4722222 L112.388889,19.4722222 L112.388889,6.13333333 L106.733333,14.9 L106.627778,14.9 L101.022222,6.18888889 L101.022222,19.4722222 L97.9222222,19.4722222 L97.9222222,0.872222222 L101.277778,0.872222222 Z M160.672222,0.872222222 L170.272222,13.7333333 L170.272222,0.872222222 L173.372222,0.872222222 L173.372222,19.4722222 L170.733333,19.4722222 L160.855556,6.23888889 L160.855556,19.4722222 L157.755556,19.4722222 L157.755556,0.872222222 L160.672222,0.872222222 Z M138.222222,0.872222222 L138.222222,19.4666667 L135.072222,19.4666667 L135.072222,0.872222222 L138.222222,0.872222222 Z M234,3.55555556 C232.346244,3.51021018 230.757378,4.19987171 229.661111,5.43888889 C228.522239,6.72018625 227.912603,8.38625922 227.955556,10.1 L227.955556,10.1 L227.955556,10.1555556 C227.912507,11.8763159 228.526318,13.5488989 229.672222,14.8333333 C230.780752,16.0845847 232.384351,16.7837457 234.055556,16.7444444 C235.708289,16.7927873 237.296672,16.1024518 238.388889,14.8611111 C239.533454,13.5876467 240.144162,11.9226217 240.094444,10.2111111 L240.094444,10.2111111 L240.094444,10.1722222 C240.138256,8.44699941 239.52231,6.77003853 238.372222,5.48333333 C237.271172,4.22638397 235.670634,3.52068267 234,3.55555556 Z M9.73888889,10.3666667 C9.53586077,10.4924899 9.3263077,10.6074659 9.11111111,10.7111111 C8.95,10.8055556 8.75,10.8888889 8.55555556,10.9722222 L8.55555556,10.9722222 L8.06111111,11.1944444 C5.90555556,12.1888889 4.41666667,14.2888889 3.68333333,16.5111111 L3.68333333,16.5111111 L9.44444444,16.5111111 C11.0630406,16.4750488 12.3780698,15.1932702 12.4555639,13.5761281 C12.5330581,11.958986 11.3466199,10.557336 9.73888889,10.3666667 Z M40.0666667,4.65 L36.9944444,12.0833333 L43.1666667,12.0833333 L40.0666667,4.65 Z M7.03888889,3.88888889 L3.15,3.88888889 L3.16111111,11.4 C4.15567236,10.1728142 5.41232147,9.18381992 6.83888889,8.50555556 L6.83888889,8.50555556 L7.39444444,8.27777778 C7.57222222,8.19444444 7.75,8.12222222 7.91666667,8.03888889 C8.69244906,7.68528782 9.19753829,6.91901996 9.21666667,6.06666667 C9.21058945,4.86643949 8.23911607,3.89496611 7.03888889,3.88888889 L7.03888889,3.88888889 Z" id="Combined-Shape"></path>
            </g>
        </g>
    </g>
</svg>