<svg version="1.2" xmlns="http://www.w3.org/2000/svg" viewBox="0 0 800 282" width="800" height="282">
	<title>leeroy-svg</title>
	<style>
		.s0 { fill: #000000 } 
	</style>
	<path id="Layer" fill-rule="evenodd" class="s0" d="m197.2 144.3h34.2c-0.7 12.2-4.5 24-10.8 34.4-6.5 10.7-16.6 19.3-30.2 26-8.6 4.3-18.1 6.9-27.8 7.6-18.4 1.3-36.5-4.9-50.2-17.3-7.3-6.6-13.2-14.5-17.4-23.4-4.2-8.4-6.7-17.6-7.4-27-1.5-18.3 4.3-36.4 16.1-50.4 6.2-7.4 14-13.4 22.7-17.5q14.5-7 28.2-7.8c8.7-0.6 17.4 0.8 25.5 4 8.1 3.3 15.3 8.2 21.4 14.4 6.6 6.8 12.1 14.6 16.2 23.2q0.9 1.8 1.5 3c0.3 0.9 0.7 1.9 1.1 2.8 0.3 0.9 0.6 1.9 1.1 2.8l-89.8 43.8c2.6 4.1 5.9 7.6 9.9 10.4 3.5 2.4 7.4 4.1 11.6 5 4 0.9 8.1 1 12.1 0.3 4-0.7 7.9-1.9 11.6-3.7 7.1-3.5 12.3-8.1 15.4-13.6 3-5.2 4.7-11.1 5-17zm-75.1-5.1l56.4-27.5c-1.4-2.2-3.1-4.1-5.2-5.7-2.6-2.1-5.5-3.6-8.7-4.6-3.6-1.1-7.4-1.6-11.2-1.3-4.7 0.4-9.2 1.7-13.4 3.9-6.4 3-11.6 8-14.8 14.3-3.2 6.5-4.3 13.8-3.1 20.9z"/>
	<path id="Layer" class="s0" d="m440.1 91.8c1.8-3.4 4.1-6.4 6.8-9.1q4.3-4.2 9.6-7.2c3.6-2.1 7.4-3.8 11.4-5 3.9-1.2 8-1.9 12.1-1.9 4.3-0.1 8.6 0.4 12.7 1.5 3.2 0.9 6.2 2.2 9 4l-9.6 32.2c-2.3-1.1-4.8-2-7.3-2.6-3.2-0.7-6.5-1-9.8-1-4.7-0.1-9.3 0.9-13.5 2.9-4 1.9-7.5 4.7-10.3 8.2-2.9 3.7-5.2 7.8-6.6 12.3-1.6 5-2.4 10.1-2.3 15.3v66.5h-36.1v-134.8h33.9z"/>
	<path id="Layer" class="s0" d="m731.8 212.4c-38.9 0-68.2-29.3-68.2-68.2v-71.1h35.8v73.2c0 19 13.3 32.3 32.3 32.3 19 0 32.3-13.3 32.3-32.3v-73.2h35.8v71.1c0.2 38.9-29.1 68.2-68 68.2z"/>
	<path id="Layer" class="s0" d="m730.1 281.3c-28.4 0.1-53.9-17.3-64.2-43.8l30.1-11.8c6.4 13.6 18.8 23.4 34 23.4 19.4 0 35.1-15.8 35.2-35.2v-1.6h33.8c-0.1 38.2-30.9 69-68.9 69z"/>
	<path id="Layer" fill-rule="evenodd" class="s0" d="m574.6 68.7c9.8-0.1 19.6 1.7 28.8 5.4 17.1 6.8 30.7 20.4 37.4 37.6 7.2 18.6 7.2 39.2 0 57.8-6.7 17.2-20.3 30.8-37.4 37.6-18.5 7.2-39 7.2-57.5 0-17.1-6.8-30.7-20.4-37.4-37.6-7.2-18.6-7.2-39.2 0-57.8 6.7-17.2 20.3-30.8 37.4-37.6 9.1-3.7 18.9-5.5 28.7-5.4zm0 110.4c4.6 0 9.1-0.9 13.4-2.6 4.3-1.7 8.2-4.3 11.4-7.6 3.4-3.5 6.1-7.6 7.8-12.1 3.9-10.5 3.9-22 0-32.5-1.8-4.5-4.4-8.7-7.8-12.1-3.3-3.3-7.1-5.8-11.4-7.6-8.6-3.5-18.2-3.5-26.8 0-4.2 1.8-8.1 4.3-11.3 7.6-3.4 3.5-6.1 7.6-7.8 12.1-3.9 10.5-3.9 22 0 32.5 1.8 4.5 4.4 8.6 7.8 12.1 3.2 3.2 7.1 5.8 11.3 7.6 4.2 1.8 8.8 2.6 13.4 2.6z"/>
	<path id="Layer" fill-rule="evenodd" class="s0" d="m353.8 144.3h34.5c-0.7 12.2-4.5 24-10.8 34.4-6.5 10.7-16.6 19.3-30.2 26-8.6 4.3-18.1 6.9-27.8 7.6-18.4 1.3-36.5-4.9-50.2-17.3-7.3-6.6-13.2-14.5-17.4-23.4-4.2-8.4-6.7-17.6-7.4-27-1.5-18.3 4.3-36.4 16.1-50.4 6.2-7.4 14-13.4 22.7-17.5q14.5-7 28.2-7.8c8.7-0.6 17.4 0.8 25.5 4 8.1 3.3 15.3 8.2 21.4 14.4 6.6 6.8 12.1 14.6 16.2 23.2l1.4 3c0.3 0.9 0.7 1.9 1.1 2.8 0.3 0.9 0.6 1.9 1.1 2.8l-90 43.9c2.6 4.1 6 7.5 9.9 10.3 3.5 2.4 7.4 4.1 11.6 5 4 0.9 8.1 1 12.1 0.3 4-0.7 7.9-1.9 11.6-3.7 7.1-3.5 12.3-8.1 15.4-13.6 2.9-5.2 4.6-11.1 5-17zm-75-5l56.4-27.5c-1.4-2.3-3.2-4.2-5.3-5.8-2.6-2.1-5.5-3.6-8.7-4.6-3.6-1.1-7.4-1.6-11.2-1.3-4.7 0.4-9.2 1.7-13.4 3.9-6.4 3-11.6 8-14.8 14.3q-4.9 9.3-3 21z"/>
	<path id="Layer" class="s0" d="m68.1 172.3l17 29c0 0-9.9 7.3-20.2 9.5-5.6 1.1-11.3 1.7-17.1 1.6-6.7 0.1-13.3-1-19.5-3.4-5.4-2.1-10.4-5.3-14.5-9.4-9.2-9-13.8-21.7-13.8-38.3v-160.6h38.1v153.6c0 3.4 0.4 6.7 1.1 10 0.6 2.7 1.9 5.2 3.8 7.2l0.1 0.1c2.6 3.1 6.3 4.6 11.3 4.6 2.7 0.1 5.4-0.2 8-1 2-0.7 3.9-1.7 5.7-2.9z"/>
</svg>