<?xml version="1.0" encoding="utf-8"?>
<!-- Generator: Adobe Illustrator 24.2.3, SVG Export Plug-In . SVG Version: 6.00 Build 0)  -->
<svg version="1.1" id="Lager_1" xmlns="http://www.w3.org/2000/svg" xmlns:xlink="http://www.w3.org/1999/xlink" x="0px" y="0px"
	 viewBox="0 0 1920 1920" style="enable-background:new 0 0 1920 1920;" xml:space="preserve">
<path d="M752.2,980.3c-3.1,5.5-8.3,10.1-15.4,13.6c-3.7,1.8-7.6,3-11.6,3.7c-4,0.7-8.1,0.6-12.1-0.3c-4.2-0.9-8.1-2.6-11.6-5
	c-4-2.8-7.3-6.3-9.9-10.4l89.8-43.8c-0.5-0.9-0.8-1.9-1.1-2.8c-0.4-0.9-0.8-1.9-1.1-2.8c-0.4-0.8-0.9-1.8-1.5-3
	c-4.1-8.6-9.6-16.4-16.2-23.2c-6.1-6.2-13.3-11.1-21.4-14.4c-8.1-3.2-16.8-4.6-25.5-4c-9.1,0.5-18.5,3.1-28.2,7.8
	c-8.7,4.1-16.5,10.1-22.7,17.5c-11.8,14-17.6,32.1-16.1,50.4c0.7,9.4,3.2,18.6,7.4,27c4.2,8.9,10.1,16.8,17.4,23.4
	c13.7,12.4,31.8,18.6,50.2,17.3c9.7-0.7,19.2-3.3,27.8-7.6c13.6-6.7,23.7-15.3,30.2-26c6.3-10.4,10.1-22.2,10.8-34.4h-34.2
	C756.9,969.2,755.2,975.1,752.2,980.3z M685.2,937.3c3.2-6.3,8.4-11.3,14.8-14.3c4.2-2.2,8.7-3.5,13.4-3.9c3.8-0.3,7.6,0.2,11.2,1.3
	c3.2,1,6.1,2.5,8.7,4.6c2.1,1.6,3.8,3.5,5.2,5.7l-56.4,27.5C680.9,951.1,682,943.8,685.2,937.3L685.2,937.3z"/>
<path d="M1000.1,910.8c1.8-3.4,4.1-6.4,6.8-9.1c2.9-2.8,6.1-5.2,9.6-7.2c3.6-2.1,7.4-3.8,11.4-5c3.9-1.2,8-1.9,12.1-1.9
	c4.3-0.1,8.6,0.4,12.7,1.5c3.2,0.9,6.2,2.2,9,4l-9.6,32.2c-2.3-1.1-4.8-2-7.3-2.6c-3.2-0.7-6.5-1-9.8-1c-4.7-0.1-9.3,0.9-13.5,2.9
	c-4,1.9-7.5,4.7-10.3,8.2c-2.9,3.7-5.2,7.8-6.6,12.3c-1.6,5-2.4,10.1-2.3,15.3v66.5h-36.1V892.1h33.9V910.8z"/>
<path d="M1291.8,1031.4c-38.9,0-68.2-29.3-68.2-68.2v-71.1h35.8v73.2c0,19,13.3,32.3,32.3,32.3s32.3-13.3,32.3-32.3v-73.2h35.8v71.1
	C1360,1002.1,1330.7,1031.4,1291.8,1031.4z"/>
<path d="M1290.1,1100.3c-28.4,0.1-53.9-17.3-64.2-43.8l30.1-11.8c6.4,13.6,18.8,23.4,34,23.4c19.4,0,35.1-15.8,35.2-35.2v-1.6h33.8
	C1358.9,1069.5,1328.1,1100.3,1290.1,1100.3z"/>
<path d="M1134.6,887.7c9.8-0.1,19.6,1.7,28.8,5.4c17.1,6.8,30.7,20.4,37.4,37.6c7.2,18.6,7.2,39.2,0,57.8
	c-6.7,17.2-20.3,30.8-37.4,37.6c-18.5,7.2-39,7.2-57.5,0c-17.1-6.8-30.7-20.4-37.4-37.6c-7.2-18.6-7.2-39.2,0-57.8
	c6.7-17.2,20.3-30.8,37.4-37.6C1115,889.4,1124.8,887.6,1134.6,887.7z M1134.6,998.1c4.6,0,9.1-0.9,13.4-2.6
	c4.3-1.7,8.2-4.3,11.4-7.6c3.4-3.5,6.1-7.6,7.8-12.1c3.9-10.5,3.9-22,0-32.5c-1.8-4.5-4.4-8.7-7.8-12.1c-3.3-3.3-7.1-5.8-11.4-7.6
	c-8.6-3.5-18.2-3.5-26.8,0c-4.2,1.8-8.1,4.3-11.3,7.6c-3.4,3.5-6.1,7.6-7.8,12.1c-3.9,10.5-3.9,22,0,32.5c1.8,4.5,4.4,8.6,7.8,12.1
	c3.2,3.2,7.1,5.8,11.3,7.6C1125.4,997.3,1130,998.1,1134.6,998.1z"/>
<path d="M908.8,980.3c-3.1,5.5-8.3,10.1-15.4,13.6c-3.7,1.8-7.6,3-11.6,3.7c-4,0.7-8.1,0.6-12.1-0.3c-4.2-0.9-8.1-2.6-11.6-5
	c-3.9-2.8-7.3-6.2-9.9-10.3l90-43.9c-0.5-0.9-0.8-1.9-1.1-2.8c-0.4-0.9-0.8-1.9-1.1-2.8l-1.4-3c-4.1-8.6-9.6-16.4-16.2-23.2
	c-6.1-6.2-13.3-11.1-21.4-14.4c-8.1-3.2-16.8-4.6-25.5-4c-9.1,0.5-18.5,3.1-28.2,7.8c-8.7,4.1-16.5,10.1-22.7,17.5
	c-11.8,14-17.6,32.1-16.1,50.4c0.7,9.4,3.2,18.6,7.4,27c4.2,8.9,10.1,16.8,17.4,23.4c13.7,12.4,31.8,18.6,50.2,17.3
	c9.7-0.7,19.2-3.3,27.8-7.6c13.6-6.7,23.7-15.3,30.2-26c6.3-10.4,10.1-22.2,10.8-34.4h-34.5C913.4,969.2,911.7,975.1,908.8,980.3z
	 M841.8,937.3c3.2-6.3,8.4-11.3,14.8-14.3c4.2-2.2,8.7-3.5,13.4-3.9c3.8-0.3,7.6,0.2,11.2,1.3c3.2,1,6.1,2.5,8.7,4.6
	c2.1,1.6,3.9,3.5,5.3,5.8l-56.4,27.5C837.5,950.5,838.5,943.5,841.8,937.3L841.8,937.3z"/>
<path d="M622.4,994.2c-2.6,0.8-5.3,1.1-8,1c-5,0-8.7-1.5-11.3-4.6l-0.1-0.1c-1.9-2-3.2-4.5-3.8-7.2c-0.7-3.3-1.1-6.6-1.1-10V819.7
	H560v160.6c0,16.6,4.6,29.3,13.8,38.3c4.1,4.1,9.1,7.3,14.5,9.4c6.2,2.4,12.8,3.5,19.5,3.4c5.8,0.1,11.5-0.5,17.1-1.6
	c10.3-2.2,20.2-9.5,20.2-9.5l-17-29C626.3,992.5,624.4,993.5,622.4,994.2z"/>
</svg>
