<?xml version="1.0" encoding="UTF-8"?>
<svg width="600px" height="193px" viewBox="0 0 600 193" version="1.1" xmlns="http://www.w3.org/2000/svg" xmlns:xlink="http://www.w3.org/1999/xlink">
    <!-- Generator: Sketch 47.1 (45422) - http://www.bohemiancoding.com/sketch -->
    <title>iPad Copy</title>
    <desc>Created with Sketch.</desc>
    <defs></defs>
    <g id="Page-1" stroke="none" stroke-width="1" fill="none" fill-rule="evenodd">
        <g id="iPad-Copy" fill-rule="nonzero">
            <g id="logo" transform="translate(4.000000, 9.000000)">
                <path d="M126.313559,89.9724255 L104.637787,102.123863 L104.756581,102.330134 L104.449175,102.505465 L104.449175,127.494191 L84.3135593,139 L84.3135593,100.414906 C84.3135593,94.6042457 87.4688998,89.1978771 92.5530829,86.292547 L126.313559,67 L126.313559,89.9724255 Z M65.0748733,86.291792 C70.1591826,89.1971637 73.3135593,94.6036098 73.3135593,100.414353 L73.3135593,139 L53.3139563,127.573442 L53.3139563,103.610572 L54.1309472,102.184186 L31.3135593,89.3920928 L31.3135593,67 L65.0748733,86.291792 Z M120.313559,57.5140701 L86.5530829,76.8194378 C81.4688998,79.7268541 75.1603029,79.7268541 70.0761198,76.8194378 L36.3135593,57.513038 L56.2782783,46.095985 L78.1562091,58.5926111 L78.2354052,58.4574065 L78.3146014,58.5028187 L100.177943,46 L120.313559,57.5140701 Z M19.7251029,121.314468 L31.3135593,128.138492 L31.3135593,151 L8.25519331,137.421625 C3.35358265,134.536272 0.313559322,129.164145 0.313559322,123.391389 L0.313559322,96 L19.7251029,107.214557 L19.7251029,121.314468 Z M52.3230093,163.268235 L52.3230093,139.643765 L72.4746093,151.375529 L72.4746093,175 L52.3230093,163.268235 Z M0.313559322,71.7182099 L0.313559322,49 L19.3135593,60.4993026 L19.3135593,83 L0.313559322,71.7182099 Z M155.313559,49 L155.313559,71.9065434 L136.313559,83 L136.313559,60.3073185 L155.313559,49 Z M135.703737,108.372575 L155.313559,97 L155.313559,124.191945 C155.313559,130.045507 152.241469,135.492831 147.290806,138.418573 L124.313559,152 L124.313559,128.817443 L135.703737,122.085951 L135.703737,108.372575 Z M83.1286069,151.375529 L103.560321,139.452118 L103.560321,163.077647 L83.1286069,175 L83.1286069,151.375529 Z M6.31355932,38.9559465 L26.22733,28 L46.3135593,39.0371237 L26.3873217,50 L6.31355932,38.9559465 Z M77.9735307,20.21717 L66.138727,27 L46.3135593,15.6484561 L69.8662646,2.14998303 C74.8694711,-0.716661011 81.0775902,-0.716661011 86.0807968,2.14998303 L109.313559,15.4662369 L89.56325,26.8595182 L77.9735307,20.21717 Z M131.383184,52 L111.313559,39.9775261 L131.17895,28 L151.313559,40.0610006 L131.383184,52 Z" id="Combined-Shape" fill="#DC343A"></path>
                <path d="M205.287064,25.1443883 L205.287064,45.7316449 L193.635593,45.7316449 L193.635593,63.6407335 L205.287064,63.6407335 L205.287064,101.75463 C205.287064,111.601382 207.484168,118.796767 211.879411,123.337695 C216.273621,127.878623 222.737941,130.148571 231.272372,130.148571 C234.389412,130.148571 237.098624,130.007344 239.397944,129.72695 C241.697264,129.446557 244.277417,128.974424 247.140467,128.311583 L245.300598,109.178866 C243.817966,109.485031 242.604808,109.689141 241.659062,109.791196 C240.713316,109.893251 239.422723,109.943763 237.788317,109.943763 C235.744018,109.943763 234.120969,109.293291 232.921234,107.991318 C231.719434,106.691407 231.119566,104.561655 231.119566,101.602063 L231.119566,63.6407335 L245.14676,63.6407335 L245.14676,45.7316449 L231.119566,45.7316449 L231.119566,25.1443883 L205.287064,25.1443883 Z M306.69977,45.1193155 C305.729244,44.8646937 304.603847,44.6482136 303.327709,44.4688444 C302.049506,44.2915369 300.798148,44.2008214 299.571569,44.2008214 C295.739025,44.2008214 292.390711,45.4007396 289.529725,47.7985143 C286.666674,50.1973199 284.367354,53.5651316 282.630733,57.9009185 L281.710799,45.7316449 L257.335117,45.7316449 L257.335117,128.541464 L283.244023,128.541464 L283.244023,74.2029001 C284.163957,72.365912 285.569154,70.9495137 287.459615,69.9547361 C289.350075,68.9599585 291.777421,68.4620543 294.742687,68.4620543 L304.170208,68.5393687 L306.69977,45.1193155 Z M316.512404,128.541464 L342.497713,128.541464 L342.497713,45.7316449 L316.512404,45.7316449 L316.512404,128.541464 Z M316.512404,26.521614 L342.497713,26.521614 L342.497713,9.14857143 L316.512404,9.14857143 L316.512404,26.521614 Z M378.294623,45.7316449 L351.006332,45.7316449 L377.987979,128.541464 L404.280965,128.541464 L431.262611,45.7316449 L404.050723,45.7316449 L393.088945,94.4077085 L391.402915,103.285454 L390.942432,103.20917 L389.41024,94.4077085 L378.294623,45.7316449 Z M494.464483,127.508545 C500.213298,125.74784 504.900731,123.540774 508.529878,120.888377 L502.398014,105.122442 C497.900556,107.010973 494.182617,108.335625 491.244196,109.102583 C488.305774,109.867479 484.384438,110.249927 479.478121,110.249927 C474.622395,110.249927 470.73926,108.886103 467.82665,106.155361 C464.915073,103.426681 463.176387,99.9444446 462.614721,95.7076199 L462.767527,95.2499192 L510.139505,95.2499192 L510.139505,81.7034198 C510.139505,70.172247 506.946062,61.038849 500.558145,54.3042565 C494.170227,47.5686331 485.353931,44.2008214 474.112352,44.2008214 C461.795969,44.1513402 452.329213,48.1180802 445.712087,56.1020721 C439.093927,64.0881257 435.78588,74.3822694 435.78588,86.9834723 L435.78588,89.8925524 C435.78588,101.423725 439.426384,111.015854 446.708424,118.668941 C453.990464,126.322028 463.738052,130.148571 475.952221,130.148571 C482.544569,130.148571 488.714634,129.269249 494.464483,127.508545 Z M482.237924,67.4672768 C483.974545,69.7135154 484.843889,72.9277293 484.843889,77.1109494 L484.843889,79.1005045 L462.537285,79.1005045 L462.308076,78.7180563 C462.715903,74.2791836 463.852657,70.7330336 465.718338,68.0796062 C467.584019,65.4272096 470.380991,64.100496 474.112352,64.100496 C477.79209,64.100496 480.50027,65.2230998 482.237924,67.4672768 Z M545.975649,104.356515 C544.007754,100.428947 543.023806,94.9942665 543.023806,88.0555642 L543.023806,86.2948595 C543.023806,79.5602669 544.007754,74.1771287 545.975649,70.1464756 C547.943545,66.1158225 551.379619,64.100496 556.284903,64.100496 C559.811835,64.100496 562.442579,65.337525 564.180233,67.8115832 C565.917887,70.2877031 566.78723,73.4885159 566.78723,77.4171141 L590.473219,77.4171141 L590.626025,76.9573516 C590.829423,66.8549474 587.789819,58.8709555 581.504117,53.0022833 C575.219447,47.1356729 566.81201,44.2008214 556.284903,44.2008214 C543.815713,44.2008214 534.18273,48.1180802 527.386985,55.9495051 C520.590208,63.781961 517.192336,73.8967355 517.192336,86.2948595 L517.192336,88.0555642 C517.192336,100.505231 520.602598,110.632375 527.425187,118.43906 C534.247776,126.244713 543.94374,130.148571 556.515145,130.148571 C566.531177,130.148571 574.771353,127.305466 581.236706,121.615132 C587.699994,115.92686 590.829423,108.566537 590.626025,99.5351941 L590.473219,99.0764625 L566.78723,99.0764625 C566.78723,102.749408 565.943699,105.531692 564.257669,107.418162 C562.571638,109.306693 559.990453,110.249927 556.515145,110.249927 C551.456022,110.249927 547.943545,108.286144 545.975649,104.356515 Z" id="Fill-21" fill="#4C4C4E"></path>
            </g>
        </g>
    </g>
</svg>